<?xml version="1.0" standalone="no"?><svg xmlns="http://www.w3.org/2000/svg" viewBox="0 0 1440 320"><path fill="#bfdbff" fill-opacity="1" d="M0,224L34.3,234.7C68.6,245,137,267,206,277.3C274.3,288,343,288,411,282.7C480,277,549,267,617,229.3C685.7,192,754,128,823,117.3C891.4,107,960,149,1029,165.3C1097.1,181,1166,171,1234,170.7C1302.9,171,1371,181,1406,186.7L1440,192L1440,320L1405.7,320C1371.4,320,1303,320,1234,320C1165.7,320,1097,320,1029,320C960,320,891,320,823,320C754.3,320,686,320,617,320C548.6,320,480,320,411,320C342.9,320,274,320,206,320C137.1,320,69,320,34,320L0,320Z"></path></svg>